<svg id="_0001_analysis" xmlns="http://www.w3.org/2000/svg" viewBox="0 0 500 500" data-imageid="presentation-4-62" imageName="Presentation 4" class="illustrations_image" style="width: 188px;"><defs><style>.cls-1_presentation-4-62,.cls-2_presentation-4-62,.cls-3_presentation-4-62{fill:#fff;}.cls-4_presentation-4-62{fill:#f4a28c;}.cls-5_presentation-4-62{fill:#a5a5a5;}.cls-6_presentation-4-62{fill:#e6e6e6;}.cls-2_presentation-4-62{isolation:isolate;}.cls-7_presentation-4-62{fill:#ce8172;opacity:.31;}.cls-3_presentation-4-62{opacity:.2;}.cls-8_presentation-4-62{opacity:.02;}.cls-8_presentation-4-62,.cls-9_presentation-4-62{fill:#000001;}.cls-10_presentation-4-62{fill:#24285b;}.cls-9_presentation-4-62{opacity:.08;}.cls-11_presentation-4-62{fill:#ffd200;}.cls-12_presentation-4-62{fill:#68e1fd;}</style></defs><g id="screen_presentation-4-62"><polygon class="cls-6_presentation-4-62" points="171.75 437.22 169.14 435.04 205.2 391.66 205.2 256 208.6 256 208.6 392.89 171.75 437.22"/><rect class="cls-6_presentation-4-62" x="72.38" y="81.86" width="262" height="233.77"/><path class="cls-9_presentation-4-62" d="m267.94,231.52s-10.43,19.33,9.13,27.25c19.57,7.92,57.31,18.93,57.31,18.93v-22.98l-35.76-14.87-30.68-8.32Z"/><rect class="cls-9_presentation-4-62" x="147.32" y="256" width="12.87" height="59.63"/><rect class="cls-5_presentation-4-62" x="19.36" y="256" width="128.81" height="78.53"/><ellipse class="cls-8_presentation-4-62" cx="206.75" cy="440.67" rx="96.47" ry="18.27"/><circle class="cls-9_presentation-4-62" cx="170.44" cy="185.39" r="50.52"/><circle class="cls-1_presentation-4-62" cx="156.24" cy="173.79" r="50.52"/><path class="cls-10_presentation-4-62" d="m161.08,123.5l-4.84,50.29,50.37-3.72s-1.48-40.36-45.52-46.57Z"/><rect class="cls-9_presentation-4-62" x="269.63" y="123.8" width="43.81" height="11.06"/><rect class="cls-9_presentation-4-62" x="269.63" y="145.14" width="43.81" height="11.06"/><rect class="cls-9_presentation-4-62" x="269.63" y="168.26" width="43.81" height="11.06"/><rect class="cls-10_presentation-4-62" x="242.84" y="123.8" width="14.46" height="11.06"/><rect class="cls-11_presentation-4-62" x="242.84" y="145.14" width="14.46" height="11.06"/><rect class="cls-12_presentation-4-62 targetColor" x="242.84" y="168.26" width="14.46" height="11.06" style="fill: rgb(104, 225, 253);"/><rect class="cls-2_presentation-4-62" x="202.24" y="271.52" width="74.08" height="21.99" transform="translate(478.56 565.03) rotate(-180)"/><path class="cls-11_presentation-4-62" d="m156.24,173.79l35.48,35.95s17.62-13.5,14.89-39.67l-50.37,3.72Z"/><path class="cls-1_presentation-4-62" d="m45.11,306.43c-.44,0-.87-.17-1.2-.5-.66-.66-.66-1.74,0-2.41l12.37-12.37c.49-.49,1.23-.63,1.86-.36l19.76,8.34,10.56,2.63,17.12-14.94c.12-.11.27-.2.42-.27l17.93-8.12c.85-.39,1.86,0,2.25.85.39.86,0,1.86-.85,2.25l-17.7,8.01-17.6,15.36c-.42.36-.99.5-1.53.37l-11.55-2.88c-.09-.02-.17-.05-.25-.08l-18.82-7.95-11.56,11.56c-.33.33-.77.5-1.2.5Z"/><rect class="cls-1_presentation-4-62" x="34.39" y="267" width="25.8" height="6.81" rx="3.4" ry="3.4"/><circle class="cls-10_presentation-4-62" cx="44.81" cy="304.07" r="5.45"/><circle class="cls-11_presentation-4-62" cx="89.22" cy="302.21" r="5.45"/><circle class="cls-12_presentation-4-62 targetColor" cx="125.1" cy="279.95" r="5.45" style="fill: rgb(104, 225, 253);"/><path class="cls-12_presentation-4-62 targetColor" d="m156.24,173.79l20.81,46.04s8.88-3.46,14.67-10.09l-35.48-35.95Z" style="fill: rgb(104, 225, 253);"/><rect class="cls-10_presentation-4-62" x="72.38" y="72.92" width="262" height="26.31"/><rect class="cls-6_presentation-4-62" x="221.89" y="386.65" width="3.4" height="55.12" transform="translate(-205.22 220.09) rotate(-37.28)"/><rect class="cls-10_presentation-4-62" x="274.99" y="271.52" width="29.35" height="21.99" transform="translate(579.33 565.03) rotate(-180)"/></g><g id="person_presentation-4-62"><path class="cls-12_presentation-4-62 targetColor" d="m363.58,155.37s-39.05,12.81-26.46,86.12l-72.9-8.66-2.98,13.06,104.07,23.7,20.27-13.91-22.01-100.31Z" style="fill: rgb(104, 225, 253);"/><path class="cls-3_presentation-4-62" d="m363.58,155.37s-39.05,12.81-26.46,86.12l-72.9-8.66-2.98,13.06,104.07,23.7,20.27-13.91-22.01-100.31Z"/><path class="cls-4_presentation-4-62" d="m373.37,100.83s-1.14,13.08,1.06,21.77c.89,3.53,4.53,5.69,8.05,4.75,4.36-1.17,9.92-4.02,11.38-10.95l3.92-11.46s2.21-7.27-5.19-12.59c-7.4-5.32-18.93.48-19.23,8.48Z"/><path class="cls-12_presentation-4-62 targetColor" d="m407.62,426.65s2.03,6.78-2.5,10.77c-4.54,3.99-2.31,9.66,2.96,7.67s12.35-15.88,12.35-15.88l-5.48-6.75-7.33,4.19Z" style="fill: rgb(104, 225, 253);"/><polygon class="cls-4_presentation-4-62" points="395.83 107.95 410.79 140.92 391.32 155.37 387.44 124.36 395.83 107.95"/><path class="cls-12_presentation-4-62 targetColor" d="m396.52,140.28c3.3-.79,6.58-1.7,9.8-2.73,14.53-4.65,59.19-15.99,71.95,15.2,15.31,37.43-30.62,151.42-30.62,151.42l-78.26-6.81-18.71-98.68s-16.13-43.55,45.84-58.41Z" style="fill: rgb(104, 225, 253);"/><path class="cls-9_presentation-4-62" d="m436.59,178.79s-11.91,38.31,0,62.7h-77.79l10.6,55.87,78.26,6.81,16.7-47.27,5.41-38.98-33.18-39.13Z"/><polygon class="cls-11_presentation-4-62" points="315.97 193.07 315.97 264.64 378.45 272.59 378.45 202.16 315.97 193.07"/><path class="cls-12_presentation-4-62 targetColor" d="m480.85,162.99c5.66,17.21,10.26,45.1,4.13,85.72-.81,5.37-5.59,9.25-11.01,8.86l-87.56-6.14v-15.31l69.75-5.1s-22.1-36.42-19.81-62.95c2.13-24.69,36.76-28.61,44.5-5.07Z" style="fill: rgb(104, 225, 253);"/><path class="cls-3_presentation-4-62" d="m480.85,162.99c5.66,17.21,10.26,45.1,4.13,85.72-.81,5.37-5.59,9.25-11.01,8.86l-87.56-6.14v-15.31l69.75-5.1s-22.1-36.42-19.81-62.95c2.13-24.69,36.76-28.61,44.5-5.07Z"/><path class="cls-10_presentation-4-62" d="m369.39,297.36l-21.3,26.22c-13.62,16.76-14.65,40.46-2.56,58.34l18.76,27.73,11.91-6.81-9.78-28.35c-4.26-12.36.35-26.05,11.23-33.3l12.15-8.1s39.13-3.4,57.84-28.92l-78.26-6.81Z"/><path class="cls-10_presentation-4-62" d="m389.81,309.27l-6.33,39.05c-2.53,15.62-.64,31.64,5.47,46.24l14.04,33.54,16.26-6.03-9.06-37.05c-1.89-7.72-1.04-15.85,2.39-23.02l1.87-3.9c6.3-13.16,14.92-24.99,24.8-35.72,4.03-4.38,7.69-10.4,8.4-18.2l-57.84,5.1Z"/><path class="cls-10_presentation-4-62" d="m376.63,101.37c2.29.12,6.5.1,12.1-.93,0,0-4.1,5.71,0,12.01s10.76,3.56,10.76,3.56l-.22-16.86c.09-4.92-2.49-9.5-6.77-11.92-1.75-.99-3.69-1.97-5.63-2.75-4.85-1.95-11.96,1.29-16.32-1.99-1.91-1.44-4.67-.29-5.02,2.07-.76,5.13.16,13.2,7.1,16,1.27.51,2.63.73,4,.8Z"/><path class="cls-4_presentation-4-62" d="m387.32,112.06s.1-5.05,3.89-4.66,3.7,7.69-1.46,8.37l-2.43-3.71Z"/><path class="cls-9_presentation-4-62" d="m368.47,237.61s-15.95-4.25-17.44,14.46c-.59,7.4-18.56,8.41-35.06,1.38v11.18l62.48,7.95v-26.7l-9.98-8.28Z"/><path class="cls-4_presentation-4-62" d="m386.41,238.66s-7.8-3.73-17.26-5.75c-2.5-.53-4.86,1.39-4.86,3.95v4.72c0,2.32,1.94,4.14,4.26,4.02,4.5-.24,11.78.22,17.86,4.55v-11.48Z"/><path class="cls-12_presentation-4-62 targetColor" d="m366.79,408.22s2.03,6.78-2.5,10.77c-4.54,3.99-2.31,9.66,2.96,7.67,5.26-1.98,12.35-15.88,12.35-15.88l-5.48-6.75-7.33,4.19Z" style="fill: rgb(104, 225, 253);"/><path class="cls-4_presentation-4-62" d="m373.08,109.1l-3.66,5.06c-.9,1.25-.2,3.01,1.31,3.3l5.02.94-2.68-9.3Z"/><path class="cls-7_presentation-4-62" d="m387.55,125.24s4.42-2.55,5.97-6.16c0,0,4.66,8.18-4.86,15.04l-1.11-8.88Z"/><polygon class="cls-9_presentation-4-62" points="323.34 202.44 323.34 222.93 348.79 226.33 348.79 206.02 323.34 202.44"/><polygon class="cls-9_presentation-4-62" points="308.11 238.04 304.21 255.68 315.97 258.36 315.97 238.98 308.11 238.04"/><path class="cls-4_presentation-4-62" d="m264.22,232.83s-10.84-7.56-21.11-10.24c-1.7-.44-3.41.67-3.77,2.39h0c-.29,1.41.42,2.83,1.72,3.44l7.1,3.33c1.31.61,1.95,2.12,1.47,3.49l-.99,2.87c-.97,2.81.82,5.82,3.75,6.31l8.85,1.48,2.98-13.06Z"/><path class="cls-9_presentation-4-62" d="m363.58,155.37s36.74,6.95,45.32-18.61l-19.24,5.38s-14.44,3.66-26.09,13.23Z"/></g></svg>